<?xml version="1.0" standalone="no"?>
<!DOCTYPE svg PUBLIC "-//W3C//DTD SVG 20010904//EN"
 "http://www.w3.org/TR/2001/REC-SVG-20010904/DTD/svg10.dtd">
<svg version="1.0" xmlns="http://www.w3.org/2000/svg"
 width="133.000000pt" height="111.000000pt" viewBox="0 0 133.000000 111.000000"
 preserveAspectRatio="xMidYMid meet">

<g transform="translate(0.000000,111.000000) scale(0.100000,-0.100000)"
fill="#000000" stroke="none">
<path d="M685 918 c-9 -24 -24 -52 -33 -63 -16 -19 -16 -19 2 -5 10 8 27 34
37 58 15 35 23 43 41 40 19 -2 24 -10 26 -41 l3 -37 65 6 c97 10 83 -18 -39
-76 -55 -25 -74 -41 -98 -78 -30 -48 -40 -124 -18 -137 6 -4 9 -22 7 -40 -3
-42 9 -57 18 -21 5 22 9 24 26 15 10 -6 69 -19 130 -29 136 -24 169 -34 195
-63 49 -53 33 -86 -62 -129 -43 -19 -72 -23 -216 -28 -160 -5 -167 -6 -207
-33 -23 -15 -42 -32 -42 -38 0 -7 9 -5 23 5 53 39 84 46 216 46 140 0 221 17
280 59 39 28 39 16 2 -35 -39 -54 -56 -68 -136 -108 -39 -19 -66 -35 -61 -36
5 0 38 14 74 32 75 37 158 113 168 154 4 16 18 43 31 60 29 39 30 51 2 23
l-22 -22 -13 32 c-18 42 -69 64 -212 91 -179 33 -184 37 -132 108 28 39 70 58
70 31 0 -23 -36 -70 -57 -75 -23 -6 -32 -24 -13 -24 20 0 80 71 80 95 0 51
-42 37 -94 -31 l-36 -46 -10 28 c-9 22 -8 38 5 70 20 54 46 76 132 118 113 55
124 102 22 93 -54 -5 -59 -3 -59 15 0 35 -19 58 -49 58 -25 0 -31 -6 -46 -42z"/>
<path d="M600 831 c-8 -5 -40 -14 -70 -21 -53 -12 -130 -45 -130 -55 0 -3 17
3 38 13 20 11 70 27 110 37 40 9 75 21 78 26 7 11 -6 11 -26 0z"/>
<path d="M349 713 c-49 -52 -76 -94 -84 -129 -4 -19 2 -11 18 23 14 29 44 72
68 97 23 26 40 46 37 46 -2 0 -20 -17 -39 -37z"/>
<path d="M112 588 c-23 -23 -14 -68 22 -104 33 -33 86 -47 86 -24 0 6 -12 10
-26 10 -67 0 -115 111 -51 118 41 5 87 -45 87 -95 0 -48 31 -134 64 -178 30
-39 116 -112 166 -142 65 -39 146 -56 239 -50 48 3 97 10 111 16 20 9 15 9
-25 3 -103 -15 -208 -7 -270 22 -72 33 -177 116 -214 170 -29 42 -51 104 -51
141 1 18 3 17 21 -7 11 -16 28 -28 37 -28 11 0 7 9 -16 33 -18 18 -32 43 -32
55 0 12 -6 22 -13 22 -8 0 -24 11 -37 25 -26 27 -77 34 -98 13z"/>
<path d="M1142 470 c0 -14 2 -19 5 -12 2 6 2 18 0 25 -3 6 -5 1 -5 -13z"/>
<path d="M517 374 c-14 -14 -7 -35 11 -32 9 2 17 10 17 17 0 16 -18 25 -28 15z"/>
</g>
</svg>
